<svg id="Layer_1" data-name="Layer 1"
    xmlns="http://www.w3.org/2000/svg" viewBox="0 0 840 212.45">
    <defs>
        <style>.cls-1{fill:#fff;}.cls-2{fill:#fefefe;}.cls-3{fill:#010100;}.cls-4{fill:#010101;}</style>
    </defs>
    <path d="M419.83,212.41h-313c-28.6,0-53.49-9.69-74.07-29.46C10.33,161.36-.51,134.68,0,103.45.81,56.83,33.79,13.14,84.24,2.24A89.52,89.52,0,0,1,103.29.07c9,0,18,0,27,0Q431.12.05,732,0c18.85,0,36.67,3.85,53,13.16,29.84,17,48.22,42.46,53.67,76.51a106,106,0,0,1-83.12,120.61,111.78,111.78,0,0,1-23.18,2.17q-88.08-.09-176.16,0Z"/>
    <path class="cls-1" d="M421.56,194.6H131.49a22.76,22.76,0,0,0-3.2,0c-2.19.3-3.26-.71-4.15-2.64-3.42-7.46-7-14.84-10.53-22.26-5.28-11.13-10.51-22.28-15.85-33.38a17.68,17.68,0,0,1-1.45-6.12c-1-10.33,1.89-19.55,6.2-28.89,12.18-26.36,23.74-53,35.41-79.59,1.28-2.91,2.77-4,6-4q279.09.13,558.18,0c3.2,0,4.82.93,6.12,3.89Q727.52,65.5,747,109.2a8.53,8.53,0,0,1,1.07,3.45q0,8.23,0,16.47a8.79,8.79,0,0,1-1.31,3.85c-9.23,19.51-18.53,39-27.67,58.54-1.16,2.48-2.63,3.15-5.23,3.14-27.9-.08-55.81-.05-83.72-.05Z"/>
    <path class="cls-1" d="M120.14,17.86c-9.08,20.42-17.78,40-26.47,59.54q-5.08,11.44-10.15,22.9c-1.76,4-1.75,4-6.31,3.79Q50,102.68,22.9,101.23c-4.89-.27-5-.33-4.42-5.14,3.51-28,17.34-49.64,41-64.84C74,22,90.05,17.84,107.21,17.86,111.28,17.87,115.36,17.86,120.14,17.86Z"/>
    <path class="cls-1" d="M726.84,18c9.69-.55,19.25-.12,28.49,2.5,33.67,9.55,55.23,31.22,64.38,65.08a49.67,49.67,0,0,1,1.63,9c.27,3.19.29,3.2-3.06,3.38q-8.65.48-17.33.93c-11.1.59-22.19,1.26-33.29,1.75-5.85.26-4.46.79-6.63-4.06Q744.43,59.39,728,22.12C727.46,21,726.66,20,726.84,18Z"/>
    <path class="cls-1" d="M737.74,194c1.32-2.85,2.57-5.59,3.85-8.3,6.59-13.87,13.25-27.71,19.73-41.63,1.11-2.4,2.43-3.23,5.09-3.21,16,.14,32,.07,48.07.07C804.53,169.53,770.53,194.44,737.74,194Z"/>
    <path class="cls-1" d="M26.68,144.29h7.26c14.16,0,28.32.21,42.47-.12,4.21-.1,6.1,1.34,7.77,5,6.61,14.49,13.56,28.84,20.37,43.24.24.52.41,1.08.63,1.67C78.61,195.63,42.29,178.38,26.68,144.29Z"/>
    <path class="cls-2" d="M18.76,119.25c4-.59,7.64,0,11.27.22,14.89.72,29.77,1.54,44.66,2.33a9.19,9.19,0,0,1,2.69.32c1.25.49,1,1.74,1,2.77,0,1.61-1.12,1.51-2.19,1.51H24.09c-4.08,0-4.08,0-4.77-4.09C19.17,121.42,19,120.53,18.76,119.25Z"/>
    <path class="cls-2" d="M794.09,117.15c8-.46,16.09-1,24.14-1.35,1.29-.06,3.37-1,3.13,1.8-.4,4.52-.36,5.22-3.21,5.2-16.43-.08-32.87,0-49.3,0-1.33,0-2.7.31-2.69-1.93s1.19-2.35,2.88-2.43c8.35-.39,16.7-.87,25.05-1.31Z"/>
    <path class="cls-3" d="M444.66,83.84c-20.41-.47-36.72-.85-53-.18a132.14,132.14,0,0,0-16.85,1.48,30.39,30.39,0,0,0-4,.89c-1.79.59-4.6.71-4.27,3.19s3.11,2.18,5,2.27A227.61,227.61,0,0,0,395.7,91c24-1.42,48.05-3.58,72.16-3a119.61,119.61,0,0,1,24.95,2.72,27.43,27.43,0,0,1,9.25,3.78c3.53,2.38,5.05,6,4,9.39s-4,5.4-8.55,5.4q-25.17,0-50.32,0a40.35,40.35,0,0,0-4.12.08c-4.81.53-7.44,3.21-7.54,8.08-.14,6.55-.14,13.12,0,19.67.11,5.72,3.24,8.63,9.08,8.35,6.39-.31,12.76-.94,19.14-1.37,9.13-.61,18.24-1.5,27.39-.35,4.28.53,8.44,1.42,11.92,4.13,4.8,3.74,4.83,9.85.22,13.2a8.34,8.34,0,0,1-5.2,1.38c-22.28-.17-44.44,2.12-66.67,3.13-20.55.93-41.13,2-61.7.11a80.23,80.23,0,0,1-18.35-3.45,22.42,22.42,0,0,1-7.26-3.76c-2.86-2.35-3.93-5.62-2.91-8.5a7.7,7.7,0,0,1,7.71-5.31c7-.08,14,0,21,0,11.59,0,23.18-.09,34.77.11,5.16.09,9.7-3.49,9.26-9.39-.36-5-.07-10-.07-15.09,0-8.76-2.2-10.91-11.16-10.91H356.55c-1.22,0-2.45.06-3.66,0-4.66-.41-7.57-3.33-7.59-8.06q-.12-24.7,0-49.41c0-5.52,3.27-8.44,9.14-8.38,9.61.09,19.2-.46,28.79-1,27.08-1.51,54.15-3.68,81.31-3,10.06.25,20.1.92,29.86,3.64A22.85,22.85,0,0,1,503,47.26a9.31,9.31,0,0,1,1.19,13.09c-1.17,1.4-2.75,1.27-4.19,1.29-6.1.09-12.21.17-18.3,0-11.12-.28-22.23-.85-33.36-1.09-14.48-.32-29-.57-43.45-.61A221.26,221.26,0,0,0,377,61.37a29.69,29.69,0,0,0-8.83,2.17c-.94.43-2,1-1.83,2.34a2.41,2.41,0,0,0,2.22,2,33.92,33.92,0,0,0,6.36.6c15.26.1,30.45-1.36,45.66-2.15,21.16-1.08,42.32-2.52,63.48-.29,5.92.62,11.8,1.58,17.08,4.55,4.62,2.6,5.86,6,4.21,10.7-.93,2.63-2.51,4-5.4,3.92-5.94-.1-11.89.11-17.84-.06C468.28,84.71,454.42,84.18,444.66,83.84Z"/>
    <path class="cls-3" d="M596.07,109.9c-9.6,0-19.22.29-28.81-.1-6.12-.24-11.26,3.59-10.7,10.53.38,4.84.05,9.75.08,14.63,0,6.82,2.93,9.75,9.65,9.76h59a18,18,0,0,1,5.88.67c3.31,1.11,5.47,3.24,6.06,6.72a8,8,0,0,1-3.62,8.3,22.37,22.37,0,0,1-7.87,3.48c-8.68,2.13-17.51,2.15-26.35,2-15.25-.19-30.42-1.72-45.62-2.71-2.89-.18-5.79-.22-8.68-.29-6.7-.14-10.08-3.43-10.12-10.22-.07-14.94,0-29.88,0-44.82,0-2.44-.06-4.88,0-7.32.19-6.48,3.53-9.83,10-9.84,19.21,0,38.42,0,57.63,0a18.53,18.53,0,0,0,4.54-.31,8.29,8.29,0,0,0,6.14-7.71c.2-4.72.23-9.46,0-14.17-.24-5.3-3.89-8.51-9.47-8.25-9.43.45-18.85,1.28-28.28,1.75-9.28.46-18.58.89-27.83-.6a25.73,25.73,0,0,1-7-1.95,8.31,8.31,0,0,1-4.81-9c.75-4.22,3.46-7,7.47-7.51a21.16,21.16,0,0,1,3.65-.07,248.64,248.64,0,0,0,39.25-1.22c8.48-.94,16.94-2.12,25.49-2.21a42.28,42.28,0,0,1,7.27.67c6.6,1.08,11,4.82,13.62,10.86a45.88,45.88,0,0,1,3.42,16,227.31,227.31,0,0,1-.63,34.71,8.72,8.72,0,0,1-5.61,7.65,9.46,9.46,0,0,1-4,.49H596.07Z"/>
    <path class="cls-3" d="M315,81.41c-.58,21.93-2.15,40.75-3.37,59.6a164.8,164.8,0,0,0-.39,17.36c.2,5-1.93,7.33-6.89,7.6a53.68,53.68,0,0,1-5.95,0c-5-.27-7.1-2.6-6.82-7.62.5-8.68.75-17.36.52-26.05-.25-9.44-.69-18.88-2.63-28.17a45,45,0,0,0-1.65-5.68c-.49-1.4-.89-3.24-2.69-3.31-2.1-.08-2.46,2-3.1,3.46a40.44,40.44,0,0,0-2.59,11.08,260.06,260.06,0,0,0-1.16,46.1c.07,1.36.12,2.74.14,4.11.06,5.07-.81,6.87-4.25,8.08-4,1.41-7.83,1.21-11-2a18.4,18.4,0,0,1-3.94-6.62,51,51,0,0,1-2.68-11.06c-1.37-9.69-1.41-19.45-1.21-29.2.41-19.65,2.33-39.22,3.39-58.84.25-4.56.14-9.14.17-13.71,0-5.52,1.89-7.46,7.37-7.51a24.74,24.74,0,0,1,4.55.38,9.17,9.17,0,0,1,7.85,7.25c1.08,4.23.78,8.48.43,12.72a108.08,108.08,0,0,0-.66,12.32c.09,3.14,1.54,5.37,3.88,6a6.66,6.66,0,0,0,7.81-3.27c1.41-2.61,1.62-5.52,1.76-8.42.24-5-.59-10-.8-15.05-.06-1.37-.19-2.74-.25-4.11-.23-5.58.69-7.35,4.54-8.86,4.89-1.92,9.4-.92,12.38,2.84a25.55,25.55,0,0,1,4.56,10.36C314.83,62.2,314.89,73.32,315,81.41Z"/>
    <path class="cls-4" d="M174.8,41.84c4.88,0,9.76-.09,14.64,0,5.65.13,8.34,3.32,7.42,8.94-2.42,14.75-3,29.68-4.48,44.51-1.76,17.26-3.3,34.56-8.28,51.29-1.48,5-3.29,9.83-6.41,14s-6.78,7-12.37,6.08c-5.26-.83-7.45-3.4-7-8.75.67-8.06,2.68-15.89,4.41-23.76,3-13.52,6.33-26.95,8.19-40.68,1.06-7.84,2.28-15.72.52-23.63a27.92,27.92,0,0,0-1.05-4c-1.69-4.4-4.7-6.55-9.48-6.3-3.51.17-6.61-.31-7.94-3.85s-1.56-7.48.43-11c1.33-2.34,3.74-2.94,6.31-2.94Z"/>
    <path class="cls-4" d="M225.73,41.84c4.42,0,8.84-.12,13.25,0,6.4.21,10,4.64,9,11-1.78,11.45-2.38,23-3.45,34.52-1.79,19.09-3.23,38.24-8.28,56.84-1.67,6.17-3.77,12.22-7.82,17.35-2.13,2.71-4.67,4.74-8.24,5.21-6.11.81-10.53-2.92-10.36-9,.13-4.73,1.32-9.33,2.28-13.94,3-14.3,6.57-28.45,9.11-42.83,1.46-8.26,2.63-16.54,2.37-25a35.84,35.84,0,0,0-1-7.67c-1.51-6.08-4.27-8.34-10.5-8.75-6.86-.45-10.8-7.29-7.52-13.15a8.55,8.55,0,0,1,7.9-4.55h13.26Z"/>
    <path class="cls-4" d="M695.74,93.27c-.66,10.18-1.61,24-2.45,37.82-.48,7.9-1.15,15.79-1.26,23.72a9.67,9.67,0,0,1-14.21,8.73c-2.76-1.45-4.12-3.9-5-6.79-2.39-8.27-2.85-16.78-3-25.31-.35-16.15.82-32.26,1.91-48.36.71-10.32,1.59-20.64,1.8-31,.11-5.64,2.2-8.63,6.76-10.18a9.08,9.08,0,0,1,11.5,4.76,31.71,31.71,0,0,1,2.13,7.44C696.28,65.85,695.8,77.74,695.74,93.27Z"/>
</svg>